<svg id="Layer_5" enable-background="new 0 0 64 64" height="512" viewBox="0 0 64 64" width="512" xmlns="http://www.w3.org/2000/svg"><g><g><g><path d="m58 7v2c0 .55-.45 1-1 1h-1-10-10-5.69c-.51-1.49-1.32-2.83-2.34-3.98l.03-.02h29c.55 0 1 .45 1 1z" fill="#ccd1d9"/></g><g><path d="m36 10 2 12h-7v-8c0-1.4-.24-2.75-.69-4z" fill="#fcd770"/></g><g><path d="m56 10 6 12h-12l-4-12z" fill="#fcd770"/></g><g><path d="m38 22-2 4h-4.88c-.08-.5-.12-1.01-.12-1.53v-2.47z" fill="#ffeaa7"/></g><g><path d="m62 22-2 4h-8l-2-4z" fill="#ffeaa7"/></g><g><path d="m46 10 4 12h-12l-2-12z" fill="#fc6e51"/></g><g><path d="m50 22-2 4h-8l-2-4z" fill="#ff826e"/></g><g><path d="m60 26v30h-24v-4h4 4 4 4 4v-22h-23.4c-.75-1.23-1.27-2.58-1.48-4h4.88l2-4 2 4h8l2-4 2 4z" fill="#ccd1d9"/></g><g><path d="m22.62 15h-4.62l-.96-.32c-1.12-.38-1.91-1.37-2.03-2.68h-.01l-1.79.89c-1.35.68-2.21 2.07-2.21 3.58v7.53c0 3.31 2.69 6 6 6l-1 2c-.77.17-1.52.38-2.25.64-3.12 1.12-5.8 3.06-7.81 5.54l-1.48 2.15-.23-.17c-1.34-.9-2.23-2.42-2.23-4.16 0-1.38.56-2.63 1.46-3.54 2.16-2.15 3.54-4.94 3.54-7.99v-10.47c0-3.32 1.34-6.32 3.51-8.49s5.17-3.51 8.49-3.51c3.57 0 6.77 1.55 8.97 4.02 1.02 1.15 1.83 2.49 2.34 3.98.45 1.25.69 2.6.69 4v8 2.47c0 .52.04 1.03.12 1.53.21 1.42.73 2.77 1.48 4 .53.89 1.19 1.71 1.94 2.46.9.91 1.46 2.16 1.46 3.54 0 1.74-.89 3.26-2.23 4.16l-.25.14c-2.06-3.5-5.31-6.25-9.27-7.66-.73-.26-1.48-.47-2.25-.64l-1-2c3.31 0 6-2.69 6-6v-5c0-2.21-1.79-4-4-4z" fill="#b27946"/></g><g><path d="m32.6 30c.53.89 1.19 1.71 1.94 2.46.9.91 1.46 2.16 1.46 3.54 0 1.74-.89 3.26-2.23 4.16l-.25.14c1.59 2.66 2.48 5.75 2.48 9.02v2.68h20v-22z" fill="#e6e9ed"/></g><g><path d="m52 34v18h-4v-14-4z" fill="#fcd770"/></g><g><path d="m48 38v14h-4v-10-4z" fill="#fcd770"/></g><g><path d="m40 42h4v10h-4z" fill="#fcd770"/></g><g><path d="m23 42v8c0-1.1-.9-2-2-2h-.17c-.53 0-1.04.21-1.42.59l-1.41 1.41-5-.01v-7.99h5 2z" fill="#e6e9ed"/></g><g><path d="m23 56v6h-10v-6h5z" fill="#e6e9ed"/></g><g><path d="m9 56h4v6h-4z" fill="#b4dd7f"/></g><g><path d="m13 49.99 5 .01v6h-5-4-.32c-3.69 0-6.68-2.99-6.68-6.68 0-3.26.89-6.34 2.46-8.99l1.48-2.15c2.01-2.48 4.69-4.42 7.81-5.54l1.52 3.36h.01l2.72 6h-5z" fill="#b4dd7f"/></g><g><path d="m33.52 40.3c1.59 2.66 2.48 5.75 2.48 9.02v2.68 4 6h-7-6v-6c.83 0 1.58-.34 2.12-.88s.88-1.29.88-2.12-.34-1.58-.88-2.12-1.29-.88-2.12-.88v-8h-3l2.72-6h.01l1.52-3.36c3.96 1.41 7.21 4.16 9.27 7.66z" fill="#b4dd7f"/></g><g><path d="m22.72 36-2.72 6h-2l-2.72-6z" fill="#ffeaa7"/></g><g><path d="m25.12 50.88c.54.54.88 1.29.88 2.12s-.34 1.58-.88 2.12-1.29.88-2.12.88h-5v-6l1.41-1.41c.38-.38.89-.59 1.42-.59h.17c1.1 0 2 .9 2 2 .83 0 1.58.34 2.12.88z" fill="#f0d0b4"/></g><g><path d="m24.25 32.64-1.52 3.36h-.01-7.44-.01l-1.52-3.36c.73-.26 1.48-.47 2.25-.64l1-2h4l1 2c.77.17 1.52.38 2.25.64z" fill="#f0d0b4"/></g><g><path d="m15.01 12c.12 1.31.91 2.3 2.03 2.68l.96.32h4.62.38c2.21 0 4 1.79 4 4v5c0 3.31-2.69 6-6 6h-4c-3.31 0-6-2.69-6-6v-7.53c0-1.51.86-2.9 2.21-3.58l1.79-.89z" fill="#f0d0b4"/></g></g><g><path d="m17 23.764-.105-.211-1.789.895.105.211c.722 1.444 2.174 2.341 3.789 2.341s3.067-.897 3.789-2.342l.105-.211-1.789-.895-.105.212c-.381.762-1.147 1.236-2 1.236s-1.619-.474-2-1.236z"/><circle cx="23" cy="19" r="1"/><circle cx="15" cy="19" r="1"/><path d="m61 26.236 2.118-4.236-5.547-11.093c.824-.248 1.429-1.004 1.429-1.907v-2c0-1.103-.897-2-2-2h-28.641c-2.367-2.46-5.684-4-9.359-4-7.168 0-13 5.832-13 13v10.474c0 2.605-1.151 5.192-3.242 7.284-1.134 1.132-1.758 2.638-1.758 4.242 0 1.816.823 3.509 2.182 4.619-1.391 2.624-2.182 5.592-2.182 8.698 0 4.006 3.083 7.301 7 7.648v6.035h29v-6h24zm-5.618-15.236 5 10h-9.661l-3.334-10zm-10.102 0 3.333 10h-9.765l-1.668-10zm-10.127 0 1.666 10h-4.819v-7c0-1.034-.134-2.035-.363-3zm-3.153 13.474v-1.474h4.382l-1 2h-3.353c-.011-.175-.029-.351-.029-.526zm16.382-1.474-1 2h-6.764l-1-2zm12 0-1 2h-6.764l-1-2zm-3.382-16v2h-26.003c-.293-.701-.654-1.367-1.06-2zm-54 29c0-1.068.416-2.073 1.172-2.828 2.469-2.47 3.828-5.559 3.828-8.698v-10.474c0-6.065 4.935-11 11-11s11 4.935 11 11v10.474c0 3.14 1.359 6.229 3.828 8.698.756.755 1.172 1.76 1.172 2.828 0 1.107-.462 2.146-1.223 2.876-2.557-3.782-6.462-6.626-11.094-7.746l-.152-.304c3.125-.701 5.469-3.493 5.469-6.826v-5c0-2.757-2.243-5-5-5h-.382c-.25 0-.5-.059-.724-.171-.551-.275-.894-.83-.894-1.447v-.146c0-.998.555-1.896 1.447-2.342l-.895-1.789c-1.573.789-2.552 2.372-2.552 4.131v.146c0 1.379.767 2.619 2 3.236.5.25 1.06.382 1.618.382h.382c1.654 0 3 1.346 3 3v5c0 2.757-2.243 5-5 5h-4c-2.757 0-5-2.243-5-5v-7.528c0-1.143.636-2.171 1.658-2.683l.687-.344c.443 1.01 1.286 1.819 2.381 2.183l.957.319.633-1.896-.957-.32c-.813-.27-1.359-1.028-1.359-1.884 0-.758.421-1.439 1.098-1.778l.349-.174-.893-1.789-.351.174c-1.213.609-2.011 1.764-2.17 3.086l-1.269.634c-1.705.854-2.764 2.566-2.764 4.472v7.528c0 3.333 2.344 6.125 5.469 6.826l-.152.304c-4.629 1.12-8.532 3.961-11.089 7.74-.776-.748-1.228-1.775-1.228-2.87zm40 15h-2v-8h2zm4 0h-2v-12h2zm4 0h-2v-16h2zm-4-18v4h-4v4h-4v10h-2v-1.683c0-3.107-.791-6.075-2.183-8.7 1.374-1.135 2.183-2.817 2.183-4.617 0-1.604-.624-3.11-1.758-4.242-.245-.246-.476-.499-.695-.758h20.453v20h-2v-18zm-25 24v4h-8v-4zm1-2h-4v-4.586l1.121-1.121c.187-.187.444-.293.707-.293h.172c.552 0 1 .448 1 1v1h1c1.103 0 2 .897 2 2s-.897 2-2 2zm-1-7.825c-.313-.111-.649-.175-1-.175h-.172c-.801 0-1.555.313-2.121.879l-1.121 1.121-3.586-.002v-5.998h8zm-3.356-6.175-1.818-4h4.349l-1.818 4zm3.439-6h-6.167l-.791-1.74c.358-.103.716-.204 1.084-.283l.47-.101.939-1.876h2.764l.938 1.877.47.101c.368.079.726.18 1.084.283zm-19.083 14.317c0-3.326 1.011-6.474 2.752-9.127l.063-.084-.008-.006c1.799-2.705 4.369-4.878 7.424-6.173l3.216 7.073h-4.447v7.997l-2.999-.002c-.001-.058-.001-.116-.001-.174v-.216c0-2.16.634-4.253 1.832-6.051l-1.664-1.109c-1.418 2.128-2.168 4.604-2.168 7.16v.216c0 .424.021.849.063 1.271l.088.901 9.849.006v4.001h-8.317c-3.134 0-5.683-2.549-5.683-5.683zm7 7.683h2v4h-2zm25 4h-5v-5.901l.749-3.745c.167-.831.251-1.682.251-2.533v-.216c0-2.557-.75-5.032-2.168-7.16l-1.664 1.109c1.198 1.799 1.832 3.891 1.832 6.051v.216c0 .719-.071 1.438-.212 2.139l-.769 3.844-.016 6.196h-4.003v-4.142c1.721-.447 3-1.999 3-3.858s-1.279-3.417-3-3.864v-8.136h-2.447l3.215-7.073c6.073 2.575 10.232 8.622 10.232 15.39zm2-6v-2h20v-24h-23.814c-.347-.648-.618-1.318-.814-2h4.246l1.382-2.764 1.382 2.764h9.236l1.382-2.763 1.382 2.763h7.618v28z"/></g></g></svg>